<svg id="visual" viewBox="0 0 1920 1080" width="1920" height="1080" xmlns="http://www.w3.org/2000/svg" xmlns:xlink="http://www.w3.org/1999/xlink" version="1.1"><rect x="0" y="0" width="1920" height="1080" fill="#f8fafc"></rect><path d="M1359 1080L1361.8 1062C1364.7 1044 1370.3 1008 1392.3 972C1414.3 936 1452.7 900 1468.3 864C1484 828 1477 792 1463.2 756C1449.3 720 1428.7 684 1428.7 648C1428.7 612 1449.3 576 1456.2 540C1463 504 1456 468 1436 432C1416 396 1383 360 1379 324C1375 288 1400 252 1420.3 216C1440.7 180 1456.3 144 1444.5 108C1432.7 72 1393.3 36 1373.7 18L1354 0L1920 0L1920 18C1920 36 1920 72 1920 108C1920 144 1920 180 1920 216C1920 252 1920 288 1920 324C1920 360 1920 396 1920 432C1920 468 1920 504 1920 540C1920 576 1920 612 1920 648C1920 684 1920 720 1920 756C1920 792 1920 828 1920 864C1920 900 1920 936 1920 972C1920 1008 1920 1044 1920 1062L1920 1080Z" fill="#16a34a"></path><path d="M1592 1080L1582 1062C1572 1044 1552 1008 1549.7 972C1547.3 936 1562.7 900 1574.3 864C1586 828 1594 792 1572.7 756C1551.3 720 1500.7 684 1489.7 648C1478.7 612 1507.3 576 1524.7 540C1542 504 1548 468 1532 432C1516 396 1478 360 1463.2 324C1448.3 288 1456.7 252 1469.2 216C1481.7 180 1498.3 144 1518.7 108C1539 72 1563 36 1575 18L1587 0L1920 0L1920 18C1920 36 1920 72 1920 108C1920 144 1920 180 1920 216C1920 252 1920 288 1920 324C1920 360 1920 396 1920 432C1920 468 1920 504 1920 540C1920 576 1920 612 1920 648C1920 684 1920 720 1920 756C1920 792 1920 828 1920 864C1920 900 1920 936 1920 972C1920 1008 1920 1044 1920 1062L1920 1080Z" fill="#18ad4f"></path><path d="M1594 1080L1590.5 1062C1587 1044 1580 1008 1597.3 972C1614.7 936 1656.3 900 1660.3 864C1664.3 828 1630.7 792 1632 756C1633.3 720 1669.7 684 1678.2 648C1686.7 612 1667.3 576 1665 540C1662.7 504 1677.3 468 1675.5 432C1673.7 396 1655.3 360 1650 324C1644.7 288 1652.3 252 1647.8 216C1643.3 180 1626.7 144 1631.8 108C1637 72 1664 36 1677.5 18L1691 0L1920 0L1920 18C1920 36 1920 72 1920 108C1920 144 1920 180 1920 216C1920 252 1920 288 1920 324C1920 360 1920 396 1920 432C1920 468 1920 504 1920 540C1920 576 1920 612 1920 648C1920 684 1920 720 1920 756C1920 792 1920 828 1920 864C1920 900 1920 936 1920 972C1920 1008 1920 1044 1920 1062L1920 1080Z" fill="#1ab754"></path><path d="M1780 1080L1784.3 1062C1788.7 1044 1797.3 1008 1787.5 972C1777.7 936 1749.3 900 1742.5 864C1735.7 828 1750.3 792 1754.5 756C1758.7 720 1752.3 684 1754.3 648C1756.3 612 1766.7 576 1763.2 540C1759.7 504 1742.3 468 1738.8 432C1735.3 396 1745.7 360 1753 324C1760.3 288 1764.7 252 1756.7 216C1748.7 180 1728.3 144 1732.2 108C1736 72 1764 36 1778 18L1792 0L1920 0L1920 18C1920 36 1920 72 1920 108C1920 144 1920 180 1920 216C1920 252 1920 288 1920 324C1920 360 1920 396 1920 432C1920 468 1920 504 1920 540C1920 576 1920 612 1920 648C1920 684 1920 720 1920 756C1920 792 1920 828 1920 864C1920 900 1920 936 1920 972C1920 1008 1920 1044 1920 1062L1920 1080Z" fill="#1cc259"></path></svg>